<?xml version="1.0" encoding="utf-8"?>
<!-- Generator: Adobe Illustrator 21.0.2, SVG Export Plug-In . SVG Version: 6.00 Build 0)  -->
<svg version="1.1" id="Capa_1" xmlns="http://www.w3.org/2000/svg" xmlns:xlink="http://www.w3.org/1999/xlink" x="0px" y="0px"
	 viewBox="0 0 192.7 192.7" style="enable-background:new 0 0 192.7 192.7;" xml:space="preserve">
<style type="text/css">
	.st0{fill:#FFFFFF;}
</style>
<g>
	<g id="Double_Chevron_Down">
		<path class="st0" d="M172,88.5l-75.6,74.5L20.7,88.5c-4.7-4.7-12.4-4.7-17.2,0s-4.7,12.3,0,17l84.2,83c4.6,4.5,12.6,4.5,17.2,0
			l84.2-83c4.7-4.7,4.7-12.3,0-17C184.4,83.8,176.7,83.8,172,88.5z"/>
		<path class="st0" d="M87.8,104.3c4.6,4.5,12.6,4.5,17.2,0l84.2-83c4.7-4.7,4.7-12.3,0-17c-4.7-4.7-12.4-4.7-17.2,0L96.3,78.8
			L20.7,4.3C16-0.4,8.3-0.4,3.6,4.3s-4.7,12.3,0,17L87.8,104.3z"/>
	</g>
</g>
</svg>
