<svg width="32" height="32" viewBox="0 0 32 32" fill="none" xmlns="http://www.w3.org/2000/svg">
<g id="Behance">
<g id="Behance_2">
<rect id="Rectangle" width="32" height="32" rx="16" fill="#0057FF"/>
<path id="Vector" d="M12.2882 9.29773C12.904 9.29773 13.4724 9.3451 13.9934 9.48719C14.5144 9.58193 14.9407 9.77139 15.3196 10.0082C15.6986 10.2451 15.9828 10.5766 16.1722 11.0029C16.3617 11.4292 16.4564 11.9502 16.4564 12.5186C16.4564 13.1818 16.3143 13.7501 15.9828 14.1764C15.6986 14.6027 15.2249 14.9817 14.6565 15.2659C15.4617 15.5027 16.0775 15.929 16.4564 16.4974C16.8354 17.0658 17.0722 17.7763 17.0722 18.5815C17.0722 19.2446 16.9301 19.813 16.6933 20.2867C16.4564 20.7603 16.0775 21.1866 15.6512 21.4708C15.2249 21.755 14.7039 21.9918 14.1355 22.1339C13.5671 22.276 12.9987 22.3708 12.4303 22.3708H6.08325V9.29773H12.2882ZM11.9093 14.6027C12.4303 14.6027 12.8566 14.4606 13.1882 14.2238C13.5197 13.987 13.6618 13.5607 13.6618 13.0397C13.6618 12.7555 13.6145 12.4713 13.5197 12.2818C13.425 12.0923 13.2829 11.9502 13.0934 11.8081C12.904 11.7134 12.7145 11.6187 12.4777 11.5713C12.2408 11.5239 12.004 11.5239 11.7198 11.5239H8.97258V14.6027H11.9093ZM12.0514 20.1919C12.3356 20.1919 12.6198 20.1446 12.8566 20.0972C13.0934 20.0498 13.3303 19.9551 13.5197 19.813C13.7092 19.6709 13.8513 19.5288 13.9934 19.292C14.0881 19.0551 14.1829 18.771 14.1829 18.4394C14.1829 17.7763 13.9934 17.3026 13.6145 16.971C13.2355 16.6868 12.7145 16.5447 12.0987 16.5447H8.97258V20.1919H12.0514ZM21.193 20.1446C21.572 20.5235 22.1404 20.713 22.8982 20.713C23.4192 20.713 23.8929 20.5709 24.2718 20.334C24.6508 20.0498 24.8876 19.7656 24.9823 19.4814H27.3033C26.9243 20.6182 26.3559 21.4235 25.5981 21.9445C24.8402 22.4181 23.9403 22.7023 22.8509 22.7023C22.093 22.7023 21.4299 22.5602 20.8141 22.3234C20.1984 22.0866 19.7247 21.755 19.2984 21.2814C18.8721 20.8551 18.5405 20.334 18.3511 19.7183C18.1142 19.1025 18.0195 18.4394 18.0195 17.6815C18.0195 16.971 18.1142 16.3079 18.3511 15.6922C18.5879 15.0764 18.9195 14.5554 19.3458 14.0817C19.7721 13.6554 20.2931 13.2765 20.8615 13.0397C21.4772 12.8028 22.093 12.6607 22.8509 12.6607C23.6561 12.6607 24.3666 12.8028 24.9823 13.1344C25.5981 13.4659 26.0717 13.8449 26.4507 14.4133C26.8296 14.9343 27.1138 15.5501 27.3033 16.2132C27.398 16.8763 27.4454 17.5394 27.398 18.2973H20.5299C20.5299 19.0551 20.8141 19.7656 21.193 20.1446ZM24.1771 15.1711C23.8455 14.8396 23.3245 14.6501 22.7088 14.6501C22.2825 14.6501 21.9509 14.7448 21.6667 14.8869C21.3825 15.029 21.193 15.2185 21.0036 15.408C20.8141 15.5974 20.7194 15.8343 20.672 16.0711C20.6246 16.3079 20.5773 16.4974 20.5773 16.6868H24.8402C24.7455 15.9764 24.5087 15.5027 24.1771 15.1711ZM20.0089 10.1977H25.3139V11.4766H20.0089V10.1977Z" fill="white"/>
</g>
</g>
</svg>
