<svg width="31" height="32" viewBox="0 0 31 32" fill="none" xmlns="http://www.w3.org/2000/svg">
<g id="LinkedIn">
<g id="LinkedIn_2">
<rect id="Rectangle" width="31" height="32" rx="15.5" fill="#0077B5"/>
<g id="Group">
<path id="Path" d="M24.106 23.55C23.0888 23.525 22.0958 23.525 21.0786 23.55C20.8606 23.55 20.8122 23.5 20.8122 23.275C20.8122 21.425 20.8122 19.55 20.8122 17.7C20.8122 17.275 20.788 16.85 20.6669 16.45C20.3036 15.15 18.8505 14.675 17.8091 15.55C17.2521 16 17.0341 16.625 17.0341 17.375C17.0341 19.125 17.0341 20.875 17.0341 22.625C17.0341 22.85 17.0099 23.075 17.0341 23.325C17.0583 23.525 16.9614 23.575 16.7919 23.55C15.7505 23.55 14.7333 23.55 13.6919 23.55C13.4981 23.55 13.4497 23.5 13.4497 23.3C13.4739 21.725 13.4739 20.15 13.4739 18.55C13.4739 16.6 13.4739 14.65 13.4497 12.725C13.4497 12.5 13.4981 12.45 13.6919 12.45C14.7333 12.45 15.7505 12.45 16.7919 12.45C16.9856 12.45 17.0341 12.5 17.0341 12.7C17.0341 13.1 17.0341 13.5 17.0341 13.975C17.1067 13.9 17.131 13.875 17.1552 13.85C18.0997 12.425 19.4317 12.025 21.006 12.275C22.8224 12.575 23.9849 13.875 24.2755 15.875C24.3481 16.35 24.3724 16.825 24.3724 17.3C24.3724 19.3 24.3724 21.275 24.3724 23.275C24.3724 23.475 24.3239 23.55 24.106 23.55Z" fill="white"/>
<path id="Path_2" d="M11.5121 18C11.5121 19.75 11.5121 21.5 11.5121 23.25C11.5121 23.475 11.4636 23.55 11.2457 23.55C10.2285 23.525 9.21128 23.55 8.19409 23.55C8.00034 23.55 7.9519 23.5 7.9519 23.3C7.9519 19.775 7.9519 16.225 7.9519 12.7C7.9519 12.525 8.00034 12.45 8.19409 12.45C9.2355 12.45 10.2769 12.45 11.3183 12.45C11.5363 12.45 11.5605 12.525 11.5605 12.725C11.5121 14.475 11.5121 16.225 11.5121 18Z" fill="white"/>
<path id="Path_3" d="M11.6816 9.55001C11.4395 10.55 10.4465 11.125 9.3082 10.925C8.09726 10.725 7.41914 9.50001 7.85508 8.30001C8.1457 7.55001 8.84804 7.10001 9.74414 7.12501C11.1004 7.10001 11.9965 8.22501 11.6816 9.55001Z" fill="white"/>
</g>
</g>
</g>
</svg>
