<svg width="261" height="64" viewBox="0 0 261 64" fill="none" xmlns="http://www.w3.org/2000/svg">
<g clip-path="url(#clip0)">
<path d="M31.7987 36.7181L9.0446 17.8254L4.45422 23.6896L21.8367 37.6604L0 41.7187L1.29672 49.1917L30.2103 43.2127L31.7987 36.7181ZM2.44431 47.4647L1.6598 42.8909L25.2114 38.5141L6.48359 23.4532L9.27153 19.8907L30.1941 37.2599L29.027 41.9683L2.44431 47.4647Z" fill="black"/>
<path d="M33.8704 32.6435L39.8742 29.8034L39.952 0L32.5639 0.0985019L32.8427 22.5734L15.9497 7.98522L11.0222 13.7115L33.5203 32.3513L33.8704 32.6435ZM34.321 25.7484L34.0389 1.53663L38.5256 1.47753L38.4381 28.8742L34.0973 30.9329L13.1099 13.5309L16.1183 10.0275L34.321 25.7484Z" fill="black"/>
<path d="M63.1371 37.6604L80.5164 23.6896L75.926 17.8254L53.3307 36.5868L53.1719 36.7181L54.7928 43.2127L83.7063 49.1917L84.9836 41.7187L63.1371 37.6604ZM55.9533 41.9683L54.7863 37.2599L75.7056 19.8907L78.4935 23.4532L59.756 38.5141L83.3141 42.8909L82.5296 47.4647L55.9533 41.9683Z" fill="black"/>
<path d="M51.1004 32.6435L73.9356 13.7115L69.021 7.98522L52.1281 22.5734L52.4068 0.0985019L45.0188 0L45.1128 29.8034L51.1004 32.6435ZM46.5619 28.8742L46.4614 1.47753L50.948 1.53663L50.6498 25.7615L68.8687 10.0308L71.8771 13.5342L50.8962 30.9329L46.5619 28.8742Z" fill="black"/>
<path d="M67.6757 51.8776C66.8021 51.0129 65.7504 50.3547 64.596 49.9502C63.1604 49.4686 61.6538 49.2399 60.1418 49.2739H52.556C51.5018 49.3042 50.4496 49.1612 49.4406 48.8503C48.7347 48.6292 48.086 48.2524 47.5409 47.7471C47.0564 47.2801 46.6656 46.7226 46.3901 46.1054C46.0739 45.381 45.8085 44.6349 45.5959 43.8727L45.45 43.3408H39.511L39.3651 43.8628C39.1541 44.6255 38.8886 45.3717 38.5709 46.0955C38.2954 46.7128 37.9046 47.2703 37.4201 47.7372C36.8745 48.2425 36.226 48.6203 35.5204 48.8437C34.5108 49.1518 33.459 49.2937 32.405 49.264H25.286C23.774 49.23 22.2675 49.4588 20.8318 49.9404C19.6774 50.3449 18.6257 51.0031 17.7521 51.8677C16.9438 52.6998 16.3387 53.7117 15.9853 54.8228C15.6159 56.0111 15.4343 57.2511 15.4472 58.4969C15.4452 58.9442 15.4658 59.3914 15.5088 59.8366C15.5542 60.2535 15.5963 60.5852 15.6417 60.8872V60.9201C15.7092 61.1797 15.7633 61.4427 15.8038 61.7081L15.8719 62.1809L22.8774 63.9375L22.725 62.8835C22.6777 62.5671 22.6084 62.2544 22.5175 61.9478C22.4464 61.7346 22.3975 61.5146 22.3717 61.2911C22.3356 60.9959 22.3183 60.6987 22.3198 60.4013C22.3198 59.2029 22.5889 58.2868 23.1205 57.6761C23.6522 57.0654 24.6863 56.8027 26.2586 56.8027H33.1344C34.5403 56.8323 35.9413 56.626 37.2807 56.192C38.3454 55.833 39.3348 55.2763 40.1983 54.5503C40.9256 53.9354 41.5477 53.2033 42.0396 52.3832C42.192 52.1206 42.3346 51.8579 42.4675 51.5919C42.6069 51.8612 42.7561 52.1304 42.9214 52.3964C44.0244 54.1774 45.7045 55.5145 47.6739 56.1788C49.02 56.6231 50.4306 56.834 51.846 56.8027H59.1952C60.748 56.8027 61.7886 57.0982 62.3041 57.6794C62.8195 58.2605 63.1048 59.2061 63.1048 60.4046C63.1181 60.9567 63.0625 61.5083 62.9395 62.0463V62.0791C62.9069 62.3184 62.8549 62.5545 62.7839 62.785L62.4273 63.9868L69.5592 62.2006L69.6727 61.8099C69.7637 61.4948 69.8309 61.1732 69.8737 60.8478C69.9158 60.5622 69.945 60.2207 69.9677 59.8004C69.9904 59.3802 70.0001 58.9566 70.0001 58.4871C70.0134 57.24 69.8306 55.9986 69.4587 54.8097C69.0969 53.7055 68.4865 52.7017 67.6757 51.8776ZM20.9064 60.4144C20.9057 60.7722 20.9274 61.1298 20.9712 61.4848C20.9971 61.6785 21.0295 61.8624 21.0652 62.0266L17.1394 61.0416C17.1135 60.9069 17.081 60.769 17.0454 60.6377C17.0097 60.3816 16.9708 60.073 16.9319 59.7085C16.893 59.344 16.8768 58.9467 16.8768 58.5166C16.8641 57.4202 17.0227 56.3287 17.3469 55.2825C17.6325 54.3809 18.1234 53.5599 18.7797 52.8856C19.5035 52.1718 20.375 51.6301 21.331 51.2997C22.6062 50.8743 23.9439 50.6733 25.286 50.7054H32.418C33.6254 50.7346 34.8296 50.5661 35.9839 50.2063C36.8869 49.9162 37.7158 49.4286 38.4121 48.7781C39.0267 48.1825 39.5221 47.4723 39.8709 46.6865C40.1461 46.0657 40.3843 45.4287 40.5841 44.7789H44.377C44.5789 45.4279 44.817 46.0648 45.0901 46.6865C45.4397 47.4719 45.935 48.1819 46.549 48.7781C47.2436 49.4291 48.0716 49.9167 48.9738 50.2063C50.1335 50.5673 51.3432 50.7358 52.556 50.7054H60.1418C61.487 50.6718 62.8279 50.8717 64.1065 51.2964C65.0616 51.6274 65.9327 52.1678 66.6578 52.879C67.3115 53.5561 67.8009 54.3778 68.0874 55.2792C68.4116 56.3254 68.5703 57.4169 68.5575 58.5133C68.5575 58.9468 68.5575 59.3605 68.5283 59.7413C68.4992 60.1222 68.4797 60.4177 68.444 60.664C68.444 60.792 68.4084 60.9135 68.3857 61.0317L64.4048 62.0167C64.4957 61.4822 64.538 60.9404 64.5312 60.398C64.5312 58.845 64.1422 57.6104 63.3739 56.7337C62.6056 55.8571 61.2051 55.3646 59.1952 55.3646H51.846C50.601 55.3968 49.3594 55.217 48.1731 54.8327C47.284 54.5319 46.4567 54.0689 45.732 53.4668C45.1164 52.9464 44.5838 52.3329 44.1533 51.6478C43.7692 51.0282 43.4539 50.3675 43.2132 49.6777L43.0478 49.1983H41.9132L41.7479 49.6777C41.5075 50.3642 41.199 51.0243 40.8272 51.6478C40.4178 52.3322 39.8985 52.9425 39.2906 53.4536C38.5571 54.0581 37.7196 54.5201 36.8203 54.8162C35.6243 55.202 34.373 55.3829 33.1182 55.3514H26.2586C24.2454 55.3514 22.8774 55.8013 22.0766 56.7206C21.2759 57.64 20.9064 58.8581 20.9064 60.4144Z" fill="black"/>
<path d="M111.657 46.5848C111.391 47.2379 111.02 47.8416 110.558 48.371C110.31 48.6691 109.999 48.9062 109.647 49.0644C109.296 49.2225 108.913 49.2975 108.529 49.2838C108.151 49.3107 107.772 49.2451 107.424 49.0925C107.077 48.9399 106.771 48.7048 106.532 48.4071C106.086 47.8226 105.865 46.8092 105.867 45.3667V26.6513H114.053V20.6591H105.867V8.91109L98.6768 13.2977V20.6591H92.887V26.6644H98.6768V46.0365C98.6394 47.5499 98.8654 49.0581 99.3446 50.492C99.7169 51.5962 100.331 52.6008 101.141 53.4307C101.907 54.1799 102.845 54.7248 103.87 55.0166C104.995 55.3403 106.16 55.4995 107.329 55.4894C108.984 55.5403 110.624 55.1557 112.088 54.373C113.141 53.8289 114.098 53.111 114.918 52.2487L111.657 46.5848ZM140.674 27.2127C141.22 27.6136 141.662 28.142 141.963 28.7532C142.264 29.3643 142.415 30.04 142.402 30.7227C142.402 32.0361 141.754 32.9478 140.457 33.4578C138.627 34.1198 136.745 34.6282 134.833 34.978C133.413 35.2932 131.97 35.6642 130.505 36.0911C129.084 36.5009 127.728 37.1146 126.478 37.9133C125.277 38.6828 124.256 39.708 123.486 40.9177C122.708 42.1325 122.319 43.6648 122.319 45.5144C122.294 46.9619 122.567 48.3988 123.12 49.7336C123.624 50.9336 124.385 52.0056 125.347 52.8725C126.326 53.7427 127.465 54.4088 128.699 54.8327C130.049 55.2863 131.465 55.5082 132.887 55.4894C134.095 55.5071 135.297 55.3365 136.453 54.9837C137.434 54.6744 138.372 54.2432 139.248 53.6999C140.019 53.222 140.734 52.6557 141.378 52.0123C141.922 51.4736 142.403 50.8732 142.811 50.2228H143.008C143.123 50.9573 143.301 51.6802 143.54 52.3833C143.845 53.1837 144.224 53.9532 144.671 54.6817H150.396C150.077 53.5905 149.86 52.4714 149.748 51.3392C149.638 50.1922 149.582 48.673 149.579 46.7818V32.1346C149.623 30.2471 149.272 28.3716 148.549 26.6316C147.915 25.1523 146.96 23.8369 145.754 22.7834C144.539 21.7511 143.122 20.9922 141.595 20.5573C139.932 20.0759 138.209 19.8371 136.479 19.8481C133.102 19.8221 129.795 20.8342 126.997 22.7506C125.712 23.6273 124.576 24.7109 123.635 25.9585C122.712 27.1806 121.972 28.5336 121.437 29.9741L128.028 33.7566C128.398 31.6552 129.343 29.7015 130.758 28.119C132.132 26.6108 134.018 25.8567 136.415 25.8567C137.944 25.8069 139.445 26.2825 140.674 27.2062V27.2127ZM142.668 41.6531C142.685 42.7998 142.454 43.9362 141.99 44.9825C141.572 45.9159 140.972 46.7544 140.227 47.4483C139.49 48.125 138.631 48.6522 137.698 49.0014C136.751 49.3601 135.747 49.5425 134.735 49.5399C133.006 49.5399 131.698 49.1349 130.809 48.325C130.372 47.9273 130.026 47.4371 129.796 46.889C129.567 46.3408 129.459 45.7483 129.48 45.1532C129.448 44.4077 129.657 43.6719 130.077 43.0584C130.509 42.4905 131.053 42.0197 131.675 41.6761C132.377 41.2773 133.127 40.9706 133.905 40.7633C134.726 40.5401 135.578 40.3135 136.466 40.1067C137.796 39.8167 139.098 39.4091 140.357 38.8885C141.288 38.5332 142.089 37.8972 142.652 37.0662L142.668 41.6531ZM160.838 54.6849H168.294V20.6591H160.838V54.6849ZM160.77 15.2546H168.359V7.37446H160.77V15.2546ZM179.806 54.6849H187.262V5.80499H179.806V54.6849ZM219.032 54.2121C220.923 53.3851 222.615 52.153 223.992 50.6004C225.418 48.9565 226.504 47.0395 227.185 44.9628C227.961 42.6129 228.343 40.1481 228.316 37.6704C228.343 35.1937 227.961 32.73 227.185 30.3812C226.508 28.3059 225.428 26.3889 224.008 24.7436C222.63 23.1922 220.939 21.9603 219.048 21.1319C217.033 20.2866 214.873 19.8515 212.692 19.8515C210.511 19.8515 208.352 20.2866 206.337 21.1319C204.446 21.9594 202.754 23.1915 201.377 24.7436C199.948 26.3908 198.852 28.3062 198.151 30.3812C197.351 32.7247 196.956 35.1907 196.984 37.6704C196.956 40.1511 197.351 42.6182 198.151 44.9628C198.852 47.0378 199.948 48.9532 201.377 50.6004C202.753 52.1537 204.445 53.386 206.337 54.2121C208.351 55.0596 210.511 55.4958 212.692 55.4958C214.874 55.4958 217.033 55.0596 219.048 54.2121H219.032ZM204.94 33.0802C205.23 31.7404 205.748 30.4618 206.47 29.301C207.114 28.2632 207.992 27.3946 209.031 26.7662C210.155 26.1688 211.405 25.8567 212.674 25.8567C213.944 25.8567 215.194 26.1688 216.318 26.7662C217.372 27.3872 218.261 28.2568 218.912 29.301C219.633 30.4618 220.151 31.7404 220.442 33.0802C221.109 36.1074 221.109 39.2465 220.442 42.2737C220.151 43.6145 219.633 44.8942 218.912 46.0562C218.262 47.1001 217.372 47.9688 216.318 48.5877C215.195 49.1872 213.944 49.5006 212.674 49.5006C211.405 49.5006 210.154 49.1872 209.031 48.5877C207.991 47.9615 207.113 47.0938 206.47 46.0562C205.748 44.8942 205.23 43.6145 204.94 42.2737C204.272 39.2465 204.272 36.1074 204.94 33.0802ZM238.048 54.6849H245.436V35.2407C245.436 32.8109 245.858 30.7512 246.7 29.0613C247.543 27.3714 248.875 26.5276 250.694 26.5298C252.026 26.5298 252.98 27.0147 253.557 27.9844C254.151 29.0174 254.451 30.1972 254.422 31.3925C254.422 31.931 254.4 32.4957 254.354 33.0802C254.309 33.6646 254.254 34.2064 254.189 34.7022C254.124 35.198 254.056 35.6248 253.988 35.9827C253.947 36.233 253.892 36.4808 253.823 36.7248L260.679 32.6074C260.721 32.279 260.767 31.931 260.812 31.5271C260.857 31.1233 260.899 30.7752 260.945 30.3451C260.99 29.915 261.01 29.4586 261.01 28.9628C261.016 27.7932 260.837 26.6302 260.478 25.5185C260.149 24.4903 259.642 23.5297 258.98 22.6817C258.341 21.8731 257.534 21.2163 256.617 20.7576C255.644 20.2751 254.572 20.0321 253.489 20.0484C251.405 20.0484 249.686 20.6678 248.331 21.9068C246.96 23.1726 245.881 24.7285 245.17 26.4641H245.037L245.436 20.6591H238.038L238.048 54.6849Z" fill="black"/>
</g>
<defs>
<clipPath id="clip0">
<rect width="261" height="64" fill="white"/>
</clipPath>
</defs>
</svg>
