<svg id="Layer_1" data-name="Layer 1" xmlns="http://www.w3.org/2000/svg" viewBox="0 0 340 64"><defs><style>.cls-1{fill:#fff;}</style></defs><title>logo-Mesa de trabajo 17</title><path class="cls-1" d="M151,21.89a17,17,0,0,0-3.69.32V45.82a15,15,0,0,0,2.84.16c7.39.05,12.2-4,12.2-12.63C162.44,25.85,158.05,21.89,151,21.89Z"/><path class="cls-1" d="M0,0V64H340V0ZM30.61,52H8.08V15.9h8.19V45.12H30.61Zm38.54,0-.54-13.81c-.16-4.34-.32-9.58-.32-14.83h-.16c-1.12,4.6-2.62,9.74-4,14L59.73,51.39H53.36l-3.85-14c-1.18-4.23-2.41-9.37-3.27-14.08h-.11c-.21,4.87-.38,10.44-.64,14.93L44.85,52H37.3L39.6,15.9H50.47l3.53,12c1.12,4.18,2.25,8.67,3.05,12.9h.16c1-4.18,2.25-8.94,3.43-13l3.85-12H75.14l2,36.08Zm46.78,0h-8.56L99.66,38.06a134.19,134.19,0,0,1-6.26-12.74l-.16.05c.21,4.76.32,9.85.32,15.74V52H86.06V15.9h9.53l7.49,13.22A104.6,104.6,0,0,1,109,41.48h.16a133.87,133.87,0,0,1-.7-15V15.9h7.49Zm49.13-4.28c-3.8,3.16-9.58,4.66-16.65,4.66a70.59,70.59,0,0,1-9.26-.54V16.38a72.81,72.81,0,0,1,11-.75c6.85,0,11.29,1.23,14.77,3.85,3.75,2.78,6.1,7.23,6.1,13.6C171.06,40,168.54,44.75,165.06,47.69Zm37,4.28h-23V15.9h22.27v6.69H187.27v7.49h13.28v6.64H187.27v8.56H202.1Zm17.07.54A23.61,23.61,0,0,1,209,50.32l1.66-6.74a20.81,20.81,0,0,0,9,2.25c3.75,0,5.73-1.55,5.73-3.91s-1.71-3.53-6-5.08c-6-2.09-9.9-5.41-9.9-10.65,0-6.16,5.14-10.87,13.65-10.87a22.1,22.1,0,0,1,9.21,1.82l-1.82,6.58A17.14,17.14,0,0,0,222.92,22c-3.53,0-5.25,1.61-5.25,3.48,0,2.3,2,3.32,6.69,5.09,6.37,2.36,9.37,5.67,9.37,10.76C233.73,47.37,229.08,52.51,219.17,52.51ZM250.11,52h-8.19V15.9h8.19ZM290,50.32a40.37,40.37,0,0,1-12,2c-6.58,0-11.35-1.66-14.67-4.87s-5.14-7.82-5.09-13.11c.05-12,8.78-18.84,20.61-18.84a24.85,24.85,0,0,1,10,1.77l-1.71,6.53a20,20,0,0,0-8.4-1.55c-6.8,0-11.94,3.85-11.94,11.67,0,7.44,4.66,11.83,11.35,11.83a10.93,10.93,0,0,0,4-.54V37.68h-5.57V31.31H290ZM328.9,52h-8.56l-7.71-13.92a133.76,133.76,0,0,1-6.26-12.74l-.16.05c.21,4.76.32,9.85.32,15.74V52H299V15.9h9.53l7.49,13.22a104.52,104.52,0,0,1,5.89,12.37h.16a133.78,133.78,0,0,1-.7-15V15.9h7.49Z"/></svg>