<svg width="32" height="32" viewBox="0 0 32 32" fill="none" xmlns="http://www.w3.org/2000/svg">
<g id="Medium">
<g id="Medium_2">
<rect id="Rectangle" width="32" height="32" rx="16" fill="#292929"/>
<path id="Vector" d="M25.6666 23.7714L24.2204 22.3238C24.0682 22.2476 23.992 22.019 23.992 21.8667V10.2857C23.992 10.1333 24.0682 9.90476 24.2204 9.75238L25.6666 8.07619V8H20.4907L16.6088 17.8286L12.1941 8H6.86606V8.07619L8.23614 9.98095C8.5406 10.2857 8.61672 10.7429 8.61672 11.1238V19.5048C8.69283 19.9619 8.61672 20.4952 8.38837 20.9524L6.33325 23.7714V23.8476H11.8136V23.7714L9.75845 21.0286C9.5301 20.5714 9.45399 20.1143 9.5301 19.581V11.9619C9.60622 12.1143 9.68233 12.1143 9.75845 12.419L14.9343 24H15.0104L20.034 11.4286C19.9579 11.8857 19.9579 12.419 19.9579 12.8V21.7905C19.9579 22.019 19.8818 22.1714 19.7296 22.3238L18.2073 23.7714V23.8476H25.6666V23.7714Z" fill="white"/>
</g>
</g>
</svg>
